<?xml version="1.0" encoding="utf-8"?>
<svg width="129px" height="129px" viewBox="0 0 129 129" version="1.1" xmlns:xlink="http://www.w3.org/1999/xlink" xmlns="http://www.w3.org/2000/svg">
  <defs>
    <path d="M0 0L129 0L129 69.7151L129 129L0 129L0 0Z" id="path_1" />
    <clipPath id="mask_1">
      <use xlink:href="#path_1" />
    </clipPath>
  </defs>
  <g id="iconmonstr-loading-4">
    <path d="M0 0L129 0L129 69.7151L129 129L0 129L0 0Z" id="Background" fill="none" fill-rule="evenodd" stroke="none" />
    <g clip-path="url(#mask_1)">
      <path d="M61.8176 21.6344L61.8176 0L67.1926 0L67.1926 21.6344L64.5051 21.5L61.8176 21.6344L61.8176 21.6344ZM23.768 50.8102L2.89152 45.2148L1.49402 50.4071L22.3544 55.9971C22.7145 54.218 23.1983 52.498 23.768 50.8102L23.768 50.8102ZM55.9915 22.3511L50.4069 1.50684L45.2092 2.89896L50.8046 23.7701C52.4977 23.2003 54.2177 22.7112 55.9915 22.3511L55.9915 22.3511ZM21.5054 64.4995L21.6398 61.8174L0 61.8174L0 67.1924L21.6398 67.1924L21.5054 64.4995L21.5054 64.4995ZM36.0879 32.288L20.7906 16.9961L16.9905 20.7962L32.2877 36.0935C33.4756 34.7443 34.7441 33.4758 36.0879 32.288L36.0879 32.288ZM28.6867 40.7222L9.98169 29.9238L7.29419 34.5786L26.0207 45.3931C26.8269 43.786 27.6977 42.2165 28.6867 40.7222L28.6867 40.7222ZM102.302 43.9858L120.927 33.2358L119.814 31.3008L101.141 42.0777L102.302 43.9858L102.302 43.9858ZM106.339 54.6978L127.157 49.1186L126.463 46.5225L105.667 52.0963L106.339 54.6978L106.339 54.6978ZM86.5748 27.6483L97.3517 8.98633L96.1853 8.31445L85.4246 26.9496L86.5748 27.6483L86.5748 27.6483ZM76.0668 23.1169L81.6407 2.31023L80.7807 2.0791L75.2014 22.8965L76.0668 23.1169L76.0668 23.1169ZM95.5191 34.7727L110.757 19.54L109.489 18.2715L94.256 33.4989L95.5191 34.7727L95.5191 34.7727ZM45.3864 26.0283L34.5772 7.30176L29.9279 9.98926L40.7262 28.6889C42.2097 27.6999 43.7792 26.8291 45.3864 26.0283L45.3864 26.0283ZM22.355 73.0186L1.5 78.6086L2.8975 83.8008L23.774 78.2054C23.2043 76.5177 22.7151 74.7977 22.355 73.0186L22.355 73.0186ZM83.8176 102.881L94.6214 121.592L98.8838 119.13L88.0908 100.436C86.7201 101.333 85.285 102.134 83.8176 102.881L83.8176 102.881ZM100.668 87.7081L119.357 98.4957L121.373 95.0074L102.689 84.2197C102.066 85.4237 101.389 86.5793 100.668 87.7081L100.668 87.7081ZM93.2509 96.4149L108.527 111.691L111.698 108.525L96.4167 93.249C95.4116 94.3616 94.3581 95.4151 93.2509 96.4149L93.2509 96.4149ZM105.549 77.3565L126.344 82.9304L127.269 79.4689L106.446 73.8896C106.183 75.0614 105.898 76.2224 105.549 77.3565L105.549 77.3565ZM107.425 62.9404L107.505 65.6141L107.425 68.3154L129 68.3154L129 62.9404L107.425 62.9404L107.425 62.9404ZM73.0138 106.652L78.5984 127.502L83.796 126.11L78.2007 105.233C76.5075 105.803 74.7875 106.292 73.0138 106.652L73.0138 106.652ZM64.5051 107.499L61.8176 107.364L61.8176 128.999L67.1926 128.999L67.1926 107.364L64.5051 107.499L64.5051 107.499ZM32.2984 92.9229L16.9957 108.22L20.7959 112.02L36.0985 96.7176C34.7547 95.5351 33.4809 94.2666 32.2984 92.9229L32.2984 92.9229ZM26.0366 83.6221L7.30469 94.4366L9.99219 99.0913L28.6972 88.2929C27.7028 86.7987 26.8321 85.2292 26.0366 83.6221L26.0366 83.6221ZM40.7316 100.32L29.9279 119.031L34.5772 121.718L45.3971 102.981C43.79 102.18 42.2205 101.309 40.7316 100.32L40.7316 100.32ZM50.8152 105.238L45.2145 126.126L50.4121 127.518L56.0021 106.657C54.2284 106.297 52.5084 105.808 50.8152 105.238L50.8152 105.238Z" id="Shape" fill="#67749C" fill-rule="evenodd" stroke="none" />
    </g>
  </g>
</svg>