<?xml version="1.0" encoding="utf-8"?>
<svg width="106px" height="159px" viewBox="0 0 106 159" version="1.1" xmlns:xlink="http://www.w3.org/1999/xlink" xmlns="http://www.w3.org/2000/svg">
  <defs>
    <filter id="filter_1">
      <feColorMatrix in="SourceGraphic" type="matrix" values="0 0 0 0 0.827451 0 0 0 0 0.827451 0 0 0 0 0.827451 0 0 0 1 0" />
    </filter>
    <filter id="filter_2">
      <feColorMatrix in="SourceGraphic" type="matrix" values="0 0 0 0 0.40392157 0 0 0 0 0.45490196 0 0 0 0 0.6117647 0 0 0 1 0" />
    </filter>
    <path d="M0 0L105.925 0L105.925 158.126L0 158.126L0 0Z" id="path_1" />
    <clipPath id="mask_1">
      <use xlink:href="#path_1" />
    </clipPath>
  </defs>
  <g id="Pigeon_Silhouette_clip_art" fill="inherit" filter="url(#filter_2)">
    <g clip-path="url(#mask_1)">
      <g id="layer2" filter="url(#filter_2)">
        <g id="g3204" fill="inherit" filter="url(#filter_1)">
          <path d="M6.96014 49.8085L11.7452 41.9783L12.8327 35.8882L13.0503 27.188L13.7028 21.0979L15.2253 15.2253L18.9229 8.70017L22.8379 4.13258L29.5806 0.652514L37.4107 0L41.7608 1.52253L45.2409 3.91508L46.5459 7.83015L44.5884 9.13518L43.9359 12.1802L46.3284 15.4428L43.5008 17.4003L38.9333 21.0979L38.0632 24.3605L37.8457 30.0156L41.3258 38.2808L45.6759 44.1534L49.8085 51.1135L52.201 56.1161L50.2435 59.8137L46.3284 60.0312L43.7183 63.9463L39.8033 69.6014L38.7157 76.779L40.2383 85.4792L46.1109 94.6144L50.6785 96.7894L52.8535 101.792L58.2911 102.88L62.2062 108.317L70.6889 108.317L75.6915 108.1L87.4367 112.015L91.1343 111.797L101.139 120.497L105.925 124.847L97.2244 123.325L93.5268 125.282L83.9566 122.02L76.9965 118.757L71.7764 115.277L67.8613 113.537L63.5112 115.712L60.0312 117.235L61.7712 121.15L60.2487 133.548L57.6386 141.813L58.9436 145.293L61.9887 144.858L59.5962 148.773L57.8561 155.516L57.8561 158.126L55.2461 157.691L53.9411 151.383L45.6759 153.776L40.4558 155.081L36.7582 154.646L37.4107 153.123L40.6733 151.818L44.5884 150.513L39.3683 150.295L36.9757 150.078L35.0182 147.468L41.1083 147.033L48.0684 147.468L52.8535 145.293L54.1586 136.81L54.8111 131.155L52.8535 129.198L49.156 123.542L49.3735 117.67L48.5034 114.842L40.2383 113.537L38.9333 116.365L39.3683 121.15L40.8908 124.195L38.7157 128.328L35.6707 132.243L32.6256 137.68L32.8431 141.16L35.4532 142.683L40.4558 141.813L42.1958 142.465L38.9333 144.858L35.8882 144.858L32.6256 144.423L31.3206 147.903L32.8431 154.211L28.9281 151.383L28.2755 147.468L25.013 147.685L17.1828 150.078L12.8327 152.035L9.78769 152.035L11.3102 148.773L15.8778 147.468L21.7504 145.728L16.3128 145.728L10.0052 146.163L8.26516 144.423L8.70017 142.465L13.0503 143.335L19.3579 143.118L25.448 142.465L28.4931 137.463L31.1031 130.285L31.1031 128.545L28.7106 124.195L27.623 116.582L26.1005 111.797L19.3579 103.967L13.2678 97.8769L7.39514 88.0892L2.17504 77.214L0.217504 67.4263L0 60.9012L3.91508 54.3761L6.96014 49.8085L6.96014 49.8085Z" id="path2420" stroke="none" />
          <path d="M2.04251 7.1488L0 3.77865L0.306375 1.22551L1.94039 0L5.00415 2.04251L9.08918 4.28928L10.5189 6.22967L11.6423 8.78281L9.39556 8.47643L6.74029 7.45517L4.28927 7.25092L2.04251 7.1488L2.04251 7.1488Z" transform="translate(45.268066 8.334961)" id="path3194" stroke="none" />
          <path d="M11.5402 0L12.7657 2.65526L12.8678 6.94455L10.8253 8.98706L7.35304 9.39556L5.92329 10.8253L3.06377 14.8082L1.12338 19.3018L0 23.1825L1.02125 28.3909L3.16589 33.293L6.43391 39.012L9.29343 42.28L11.9487 42.9949L13.8891 46.2629L14.8082 48.1012L20.0166 50.1437L22.5698 54.1266L25.9399 55.4542L32.9866 55.1479L33.8036 52.0841L39.012 50.4501L39.4205 46.5693L39.2162 43.1992L41.1566 42.3821L40.2375 36.9695L37.378 31.3526L37.378 35.744L36.1525 41.5651L32.4759 45.4459L29.1058 49.5309L24.9186 49.6331L20.2209 46.9778L18.689 44.1183L21.5485 45.0374L26.1442 47.0799L29.5143 44.1183L33.3951 41.2588L35.6418 36.4589L36.0504 30.6377L34.7227 26.9612L31.5568 22.4676L28.5952 16.7486L25.7357 11.4381L22.3655 6.12754L17.5656 1.73614L11.5402 0L11.5402 0Z" transform="translate(40.059692 51.944336)" id="path3196" stroke="none" />
          <path d="M15.8295 18.2805L19.9145 17.5656L18.689 14.5018L21.5485 13.787L15.3188 8.7828L16.6465 12.3572L16.1359 14.3997L7.25092 14.5018L3.06377 13.787L4.28927 11.7444L10.3147 12.2551L14.0933 12.2551L12.7657 6.74029L9.39555 1.63401L7.76154 0L7.9658 3.57439L6.22967 3.77865L6.74029 8.88493L5.00415 10.6211L2.24676 12.153L0 13.1742L1.22551 14.8082L5.31053 15.8295L12.3572 17.9741L15.8295 18.2805L15.8295 18.2805Z" transform="translate(74.37427 92.28516)" id="path3198" stroke="none" />
          <path d="M2.88537 8.22331L7.06916 7.93477L8.80039 6.05928L8.94466 2.88537L7.3577 0.721344L3.46245 0L1.58695 2.16403L0 5.19367L2.88537 8.22331L2.88537 8.22331Z" transform="translate(28.639648 3.0722656)" id="path3200" stroke="none" />
          <path d="M0.432807 4.32806L0 2.59683L1.15415 0.577074L3.31818 0L4.47233 1.00988L5.0494 3.17391L3.75099 5.33794L0.432807 4.32806L0.432807 4.32806Z" transform="translate(31.092163 4.661133)" id="path3202" stroke="none" />
        </g>
      </g>
    </g>
  </g>
</svg>